<svg xmlns="http://www.w3.org/2000/svg" xmlns:xlink="http://www.w3.org/1999/xlink" viewBox="0,0,256,256" width="32px" height="32px" fill-rule="nonzero"><g fill="#fffdfd" fill-rule="nonzero" stroke="none" stroke-width="1" stroke-linecap="butt" stroke-linejoin="miter" stroke-miterlimit="10" stroke-dasharray="" stroke-dashoffset="0" font-family="none" font-weight="none" font-size="none" text-anchor="none" style="mix-blend-mode: normal"><g transform="scale(8,8)"><path d="M5,5v22h22v-22zM7,7h18v18h-18zM16,11.08008c0,0 -4.3907,-0.00094 -5.4707,0.28906c-0.6,0.17 -1.08023,0.64 -1.24023,1.25c-0.29,1.09 -0.28906,3.39062 -0.28906,3.39062c0,0 -0.00094,2.30039 0.28906,3.40039c0.16,0.6 0.64023,1.0607 1.24023,1.2207c1.08,0.29 5.4707,0.28906 5.4707,0.28906c0,0 4.3907,0.00094 5.4707,-0.28906c0.6,-0.17 1.08023,-0.62047 1.24023,-1.23047c0.29,-1.09 0.28906,-3.39062 0.28906,-3.39062c0,0 0.00094,-2.29062 -0.28906,-3.39062c-0.16,-0.61 -0.64023,-1.08 -1.24023,-1.25c-1.08,-0.29 -5.4707,-0.28906 -5.4707,-0.28906zM14,13.15625l5,2.85547l-5,2.8418z"></path></g></g></svg>